<svg id="Layer_5" enable-background="new 0 0 64 64" height="512" viewBox="0 0 64 64" width="512" xmlns="http://www.w3.org/2000/svg"><g><g><g><path d="m16 36h4v26h-13c-2.76 0-5-2.24-5-5v-26c0 1.38.56 2.63 1.46 3.54.91.9 2.16 1.46 3.54 1.46h7z" fill="#aab2bd"/></g><g><path d="m45 36h4.61 7.39c2.76 0 5-2.24 5-5v26c0 2.76-2.24 5-5 5h-13v-26z" fill="#aab2bd"/></g><g><path d="m44 36v26h-24v-26h4 10 5.53.47z" fill="#ccd1d9"/></g><g><path d="m10.13 26 3.87 10h-7c-1.38 0-2.63-.56-3.54-1.46-.9-.91-1.46-2.16-1.46-3.54 0-2.76 2.24-5 5-5z" fill="#e6e9ed"/></g><g><path d="m40 26v9.39l-.47.61h-5.53v-10z" fill="#e6e9ed"/></g><g><path d="m60.62 27.56c.86.89 1.38 2.1 1.38 3.44 0 2.76-2.24 5-5 5h-7.39l7.66-9.99c1.32.07 2.5.65 3.35 1.55z" fill="#e6e9ed"/></g><g><path d="m16.93 17.51-.93 2.49v16h-2l-3.87-10-8.13-21 9-3z" fill="#5cd6b3"/></g><g><path d="m34 26v10h-10v-16-6h10z" fill="#fcd770"/></g><g><path d="m30.4 2.8 3.6 7.2h-10l3.6-7.2c.25-.49.75-.8 1.29-.8h.22c.54 0 1.04.31 1.29.8z" fill="#aab2bd"/></g><g><path d="m24 10h10v4h-10z" fill="#e6e9ed"/></g><g><path d="m24 20v16h-4-4v-16z" fill="#ff826e"/></g><g><path d="m16.93 17.51 1.72-4.57c.21-.57.75-.94 1.35-.94s1.14.37 1.35.94l2.65 7.06h-8z" fill="#aab2bd"/></g><g><path d="m44 18v12.17l-4 5.22v-9.39-8z" fill="#69d6f4"/></g><g><path d="m52 18v1.73l-4 5.22v-6.95z" fill="#69d6f4"/></g><g><path d="m51.79 9.58c-1.1-2.19-3.34-3.58-5.79-3.58-1.22 0-2.4.35-3.4.97s-1.84 1.51-2.39 2.61l-.21.42v8h12v-8z" fill="#4fc1e9"/></g><g><path d="m48 18v6.95l-4 5.22v-12.17-2c0-1.1.9-2 2-2 .55 0 1.05.22 1.41.59.37.36.59.86.59 1.41z" fill="#ff826e"/></g><g><path d="m62 15.55v.17c0 .19-.03.37-.1.54l-2.68 7.21-3.22-2.47-3.13-2.4 6.75-4.35c.25-.16.54-.25.83-.25.86 0 1.55.69 1.55 1.55z" fill="#aab2bd"/></g><g><path d="m59.22 23.47-1.95 2.54-7.66 9.99h-4.61l11-15z" fill="#ffeaa7"/></g><g><path d="m56 21-11 15h-1-4v-.61l4-5.22 4-5.22 4-5.22.87-1.13z" fill="#5cd6b3"/></g><g><path d="m40 46.24c0 1.13-.45 2.21-1.24 3l-6.76 6.76-6.76-6.76c-.79-.79-1.24-1.87-1.24-3 0-1.17.48-2.23 1.24-3 .77-.76 1.83-1.24 3-1.24 1.13 0 2.21.45 3 1.24l.76.76.76-.76c.79-.79 1.87-1.24 3-1.24 1.17 0 2.23.48 3 1.24.76.77 1.24 1.83 1.24 3z" fill="#ff826e"/></g></g><g><path d="m24.536 49.95 7.464 7.464 7.464-7.464c.99-.99 1.536-2.307 1.536-3.707 0-2.891-2.352-5.243-5.243-5.243-1.4 0-2.717.545-3.707 1.536l-.05.05-.05-.05c-.991-.991-2.307-1.536-3.707-1.536-2.891 0-5.243 2.352-5.243 5.243 0 1.4.545 2.716 1.536 3.707zm3.707-6.95c.866 0 1.68.337 2.293.95l1.464 1.464 1.464-1.464c.613-.612 1.427-.95 2.293-.95 1.788 0 3.243 1.455 3.243 3.243 0 .866-.337 1.68-.95 2.293l-6.05 6.05-6.05-6.05c-.613-.613-.95-1.427-.95-2.293 0-1.788 1.455-3.243 3.243-3.243z"/><path d="m62.841 16.608c.105-.285.159-.584.159-.887v-.176c0-1.403-1.142-2.545-2.545-2.545-.491 0-.968.141-1.379.406l-6.076 3.917v-7.559l-.316-.634c-1.275-2.547-3.836-4.13-6.684-4.13s-5.409 1.583-6.684 4.131l-.316.633v15.236h-4v-15.236l-3.707-7.414c-.416-.832-1.253-1.35-2.185-1.35h-.217c-.931 0-1.769.518-2.185 1.351l-3.706 7.413v4.721l-.712-1.9c-.355-.948-1.275-1.585-2.288-1.585s-1.933.637-2.288 1.585l-.789 2.105-5.331-13.941-10.903 3.634 7.981 20.617h-1.67c-3.309 0-6 2.691-6 6v26c0 3.309 2.691 6 6 6h50c3.309 0 6-2.691 6-6v-26c0-2.591-1.646-4.815-3.97-5.648l.98-1.278zm-2.681-1.522c.338-.219.839.052.84.458v.176c0 .065-.012.13-.034.19l-2.214 5.937-4.149-3.18zm-13.186 19.914 9.229-12.585 1.611 1.235-8.699 11.35zm-29.974-14h6v14h-6zm26 16v24h-22v-24zm-10-26v2h-8v-2zm18 0v6h-2v-1c0-1.654-1.346-3-3-3s-3 1.346-3 3v1h-2v-6zm3.615 10.198-10.122 13.802h-2.938l11.497-15zm-5.615-2.198h2v.391l-2 2.609zm-2 5.609-2 2.609v-11.218c0-.551.449-1 1-1s1 .449 1 1zm-4-5.609v10.828l-2 2.609v-13.437zm3-12c1.668 0 3.192.75 4.216 2h-8.433c1.025-1.25 2.549-2 4.217-2zm-7 20v8h-4v-8zm-10.504-23.755c.075-.151.227-.245.396-.245h.217c.169 0 .32.094.396.245l2.877 5.755h-6.764zm-3.496 11.755h8v20h-8v-15.181zm-5.415-1.713c.129-.344.7-.344.829 0l2.143 5.713h-5.114zm-9.177-10.036 5.455 14.266-.863 2.302v15.181h-.315l-11.374-29.383zm-3.408 23.749h2.444l3.097 8h-5.541c-2.206 0-4-1.794-4-4s1.794-4 4-4zm-4 30v-21.54c1.063.954 2.462 1.54 4 1.54h12v24h-12c-2.206 0-4-1.794-4-4zm54 4h-12v-24h12c1.538 0 2.937-.586 4-1.54v21.54c0 2.206-1.794 4-4 4zm4-30c0 2.206-1.794 4-4 4h-5.365l6.071-7.92c1.879.335 3.294 1.962 3.294 3.92z"/></g></g></svg>