<svg width="25" height="25" viewBox="0 0 25 25" fill="none" xmlns="http://www.w3.org/2000/svg">
<path d="M24.9811 23.575C24.9363 23.295 24.8308 22.9255 24.6583 22.4452C24.6573 22.4424 24.6563 22.4396 24.6552 22.4369L16.6197 1.3481C16.5333 1.08643 16.4108 0.854736 16.2555 0.659229C16.25 0.652393 16.2444 0.645752 16.2387 0.63916C16.0519 0.428125 15.7731 0.272363 15.4097 0.176123C15.1049 0.0954102 14.7049 0.0461426 14.1874 0.0255859C13.7492 0.00791016 13.1602 0 12.2774 0C11.5091 0 10.9931 0.00795899 10.605 0.0256836C10.1421 0.0464844 9.77751 0.0967285 9.48589 0.180566C9.13674 0.283936 8.88521 0.435889 8.71736 0.644873C8.57049 0.815674 8.44902 1.03086 8.35615 1.28472L0.345292 22.3998C0.344598 22.4017 0.343851 22.4036 0.343157 22.4055C0.166128 22.8915 0.0632838 23.2452 0.0195736 23.5184C-0.0608018 24.0209 0.121724 24.3361 0.287759 24.5107C0.510526 24.7467 0.857859 24.8872 1.34956 24.9401C1.72363 24.9804 2.21746 25 2.85935 25C3.44626 25 3.93081 24.9869 4.29959 24.9609C4.72634 24.9309 5.0369 24.8767 5.27696 24.7905C5.58336 24.6804 5.80111 24.531 5.94195 24.3342C6.05921 24.1823 6.15143 23.9973 6.22343 23.7693L7.74095 19.4648H9.855C10.1498 19.4648 10.3887 19.2462 10.3887 18.9766C10.3887 18.7069 10.1498 18.4883 9.855 18.4883H7.35231C7.12069 18.4883 6.91548 18.625 6.84439 18.8267L5.20496 23.477C5.2031 23.4822 5.20139 23.4874 5.19973 23.4927C5.16067 23.6178 5.11621 23.7124 5.06759 23.774C5.06113 23.7822 5.05569 23.7896 5.04976 23.7981C5.0495 23.7984 5.01876 23.834 4.88672 23.8815C4.79417 23.9147 4.60295 23.9601 4.21783 23.9872C3.8761 24.0112 3.41909 24.0234 2.85935 24.0234C2.2679 24.0234 1.80192 24.0056 1.47434 23.9703C1.16965 23.9375 1.09557 23.8723 1.09445 23.8712C1.0667 23.842 1.0596 23.7611 1.07577 23.6599C1.10961 23.4483 1.20092 23.1399 1.35484 22.7171L9.3656 1.60229C9.36629 1.60039 9.36698 1.59849 9.36773 1.59663C9.43599 1.40923 9.50969 1.30205 9.55944 1.24517C9.56552 1.23823 9.57134 1.23115 9.57699 1.22393C9.58447 1.2144 9.63085 1.16411 9.81028 1.11099C10.0068 1.05449 10.2918 1.01753 10.6578 1.00107C11.028 0.984131 11.5275 0.976562 12.2774 0.976562C13.1439 0.976562 13.7184 0.98418 14.1406 1.00122C14.5666 1.01816 14.8937 1.05615 15.1129 1.11416C15.2991 1.16348 15.3746 1.21919 15.4024 1.24668C15.4839 1.35288 15.5504 1.48437 15.6003 1.63779C15.6026 1.64502 15.6052 1.6522 15.6079 1.65933L23.6457 22.7542C23.7958 23.1727 23.8898 23.4963 23.925 23.7163C23.9403 23.8124 23.9294 23.8609 23.9218 23.8776C23.8832 23.9002 23.7602 23.9563 23.4572 23.9815C23.1246 24.0097 22.6359 24.0234 21.963 24.0234C21.2155 24.0234 20.7316 24.0159 20.3933 23.999C20.0588 23.9826 19.8054 23.9513 19.645 23.9073C19.5373 23.8767 19.4993 23.8503 19.4926 23.8452C19.4901 23.8422 19.4876 23.8393 19.4851 23.8364C19.4715 23.8208 19.424 23.7599 19.3833 23.6269C19.3813 23.6202 19.3791 23.6135 19.3767 23.6069L17.6687 18.8248C17.597 18.624 17.3923 18.4882 17.1614 18.4882H14.6584C14.3636 18.4882 14.1247 18.7068 14.1247 18.9765C14.1247 19.2461 14.3636 19.4647 14.6584 19.4647H16.7743L18.3588 23.901C18.4258 24.1155 18.5225 24.297 18.6466 24.4407C18.7978 24.622 19.0211 24.7527 19.3334 24.8413C19.5833 24.9099 19.9114 24.9534 20.3357 24.9742C20.6936 24.992 21.1954 25 21.9631 25C22.6691 25 23.19 24.985 23.5549 24.9541C24.0502 24.9129 24.4098 24.794 24.6543 24.5907C24.6606 24.5854 24.6667 24.5801 24.6727 24.5747C24.859 24.4041 25.0638 24.0923 24.9811 23.575V23.575Z" fill="black"/>
<path d="M16.3038 15.5347C16.4042 15.4077 16.4318 15.2443 16.378 15.0955L12.7219 4.97275C12.6497 4.77275 12.4454 4.6377 12.2152 4.6377H12.1946C11.9638 4.6377 11.7591 4.77339 11.6874 4.97407L8.06555 15.0968C8.01234 15.2455 8.04025 15.4085 8.14064 15.5353C8.24103 15.662 8.40173 15.737 8.57278 15.737H15.8713C16.0426 15.737 16.2035 15.6618 16.3038 15.5347V15.5347ZM9.30902 14.7604L12.2072 6.6602L15.1328 14.7604H9.30902Z" fill="black"/>
<path d="M12.2565 18.4883H12.2561C11.9614 18.4883 11.7227 18.7069 11.7227 18.9766C11.7227 19.2462 11.9618 19.4648 12.2565 19.4648C12.5513 19.4648 12.7902 19.2462 12.7902 18.9766C12.7902 18.7069 12.5513 18.4883 12.2565 18.4883V18.4883Z" fill="black"/>
</svg>
