<svg id="Layer_1" enable-background="new 0 0 480 480" height="512" viewBox="0 0 480 480" width="512" xmlns="http://www.w3.org/2000/svg"><path d="m334.213 197.787c3.124 3.125 3.124 8.189 0 11.314l-78.333 78.333c-1.563 1.562-3.609 2.343-5.657 2.343-7.064 0-10.712-8.601-5.657-13.657l78.333-78.333c3.124-3.123 8.189-3.123 11.314 0zm-3.046 65.546c8.73 0 15.833 7.104 15.833 15.834s-7.103 15.833-15.833 15.833-15.834-7.103-15.834-15.833 7.104-15.834 15.834-15.834zm-.167 15.834c0 .185.333.185.333 0 0-.184-.333-.184-.333 0zm-62.333-78.334c0 8.73-7.104 15.834-15.834 15.834s-15.833-7.104-15.833-15.834 7.103-15.833 15.833-15.833 15.834 7.103 15.834 15.833zm-15.834-.166c-.222 0-.217.333 0 .333.22 0 .221-.333 0-.333zm195.167-118.667h-254.5c-4.418 0-8 3.582-8 8s3.582 8 8 8h254.5c8.822 0 16 7.178 16 16v252c0 8.822-7.178 16-16 16h-302v-16.937c0-4.418-3.582-8-8-8s-8 3.582-8 8v16.937h-98c-8.822 0-16-7.178-16-16v-44.063c0-5.915 3.15-11.271 8.223-13.979 54.312-28.993 54.297-106.934-.001-135.918-5.072-2.706-8.222-8.062-8.222-13.977v-44.063c0-8.822 7.178-16 16-16h98v16.937c0 4.418 3.582 8 8 8s8-3.582 8-8v-24.937c0-4.418-3.582-8-8-8h-106c-17.645 0-32 14.355-32 32v44.063c0 11.835 6.395 22.6 16.688 28.094 43.035 22.97 43.026 84.721.001 107.688-10.294 5.493-16.689 16.258-16.689 28.093v44.062c0 17.645 14.355 32 32 32h416c17.645 0 32-14.355 32-32v-252c0-17.645-14.355-32-32-32zm-302 93.385c0-4.418-3.582-8-8-8s-8 3.582-8 8v31.317c0 4.418 3.582 8 8 8s8-3.582 8-8zm-8 89.913c-4.418 0-8 3.582-8 8v31.317c0 4.418 3.582 8 8 8s8-3.582 8-8v-31.317c0-4.418-3.582-8-8-8z"/></svg>