<svg height="512" viewBox="0 0 512 512" xmlns="http://www.w3.org/2000/svg"><g><path d="m476 120h-52v-24a8 8 0 0 0 -8-8h-24v-40a8 8 0 0 0 -8-8h-256a8 8 0 0 0 -8 8v40h-24a8 8 0 0 0 -8 8v24h-52a28.031 28.031 0 0 0 -28 28v216a28.031 28.031 0 0 0 28 28h84v72a8 8 0 0 0 8 8h256a8 8 0 0 0 8-8v-72h84a28.031 28.031 0 0 0 28-28v-216a28.031 28.031 0 0 0 -28-28zm-84-16h16v16h-16zm-256-48h240v64h-240zm-32 48h16v16h-16zm272 352h-240v-112h240zm112-92a12.01 12.01 0 0 1 -12 12h-84v-32h24a8 8 0 0 0 0-16h-320a8 8 0 0 0 0 16h24v32h-84a12.01 12.01 0 0 1 -12-12v-216a12.01 12.01 0 0 1 12-12h440a12.01 12.01 0 0 1 12 12z"/><path d="m80 152h-32a8 8 0 0 0 -8 8v32a8 8 0 0 0 8 8h32a8 8 0 0 0 8-8v-32a8 8 0 0 0 -8-8zm-8 32h-16v-16h16z"/><path d="m136 152h-32a8 8 0 0 0 -8 8v32a8 8 0 0 0 8 8h32a8 8 0 0 0 8-8v-32a8 8 0 0 0 -8-8zm-8 32h-16v-16h16z"/></g></svg>