<svg height="490pt" viewBox="0 0 490.672 490" width="490pt" xmlns="http://www.w3.org/2000/svg"><path d="m288 491.003906h-234.667969c-29.417969 0-53.332031-23.9375-53.332031-53.335937v-384c0-29.394531 23.914062-53.332031 53.332031-53.332031h234.667969c29.417969 0 53.332031 23.9375 53.332031 53.332031v128c0 5.890625-4.777343 10.667969-10.664062 10.667969-5.890625 0-10.667969-4.777344-10.667969-10.667969v-128c0-17.640625-14.355469-32-32-32h-234.667969c-17.640625 0-32 14.359375-32 32v384c0 17.644531 14.359375 32 32 32h234.667969c17.644531 0 32-14.355469 32-32v-128c0-5.886719 4.777344-10.664063 10.667969-10.664063 5.886719 0 10.664062 4.777344 10.664062 10.664063v128c0 29.398437-23.914062 53.335937-53.332031 53.335937zm0 0"/><path d="m480 256.335938h-341.332031c-5.890625 0-10.667969-4.777344-10.667969-10.667969 0-5.886719 4.777344-10.664063 10.667969-10.664063h341.332031c5.886719 0 10.667969 4.777344 10.667969 10.664063 0 5.890625-4.78125 10.667969-10.667969 10.667969zm0 0"/><path d="m416 320.335938c-2.730469 0-5.460938-1.046876-7.550781-3.113282-4.160157-4.160156-4.160157-10.925781 0-15.085937l56.46875-56.46875-56.449219-56.445313c-4.160156-4.160156-4.160156-10.925781 0-15.085937 4.160156-4.15625 10.921875-4.15625 15.082031 0l64 64c4.160157 4.160156 4.160157 10.925781 0 15.085937l-64 64c-2.089843 2.066406-4.820312 3.113282-7.550781 3.113282zm0 0"/></svg>