<svg width="25" height="25" viewBox="0 0 25 25" fill="none" xmlns="http://www.w3.org/2000/svg">
<path d="M18.0327 6.3147C17.4866 5.53496 16.7488 4.92173 15.8368 4.49072C14.9328 4.07017 13.8083 3.85693 12.4947 3.85693C11.1567 3.85693 10.0138 4.09849 9.0994 4.57407C8.18695 5.04492 7.43765 5.68736 6.87232 6.48355C6.32022 7.26104 5.92639 8.1776 5.70163 9.20846C5.63529 9.51466 5.57832 9.8295 5.5323 10.1442C5.49321 10.4114 5.69623 10.6573 5.98575 10.6934C6.27526 10.7295 6.54171 10.5421 6.5808 10.2749C6.62386 9.98043 6.67713 9.6861 6.73902 9.40055C6.93686 8.49303 7.27943 7.69171 7.75726 7.01895C8.22827 6.35562 8.85358 5.81983 9.61733 5.42569C10.3728 5.03277 11.3409 4.83355 12.4948 4.83355C13.6415 4.83355 14.6057 5.01162 15.3577 5.36148C16.0992 5.71197 16.7003 6.21109 17.1443 6.84503C17.6017 7.49786 17.9311 8.3024 18.1235 9.23634C18.3241 10.2102 18.4259 11.298 18.4259 12.4694C18.4259 13.5487 18.3222 14.5775 18.1177 15.5272C17.9195 16.4477 17.5763 17.262 17.0975 17.9475C16.6296 18.6175 16.006 19.1538 15.2396 19.5437C14.492 19.9326 13.5238 20.1297 12.3621 20.1297C11.1999 20.1297 10.227 19.9569 9.47328 19.6174C8.72699 19.2757 8.14982 18.7967 7.70992 18.1546C7.25298 17.4821 6.92453 16.6657 6.73373 15.7281C6.6574 15.353 6.59466 14.955 6.54721 14.5447C6.51621 14.2766 6.25616 14.0823 5.96506 14.1111C5.67454 14.1397 5.46422 14.3802 5.49522 14.6484C5.54558 15.0842 5.61244 15.508 5.6939 15.9083C5.90931 16.9666 6.286 17.8969 6.81466 18.675C7.3547 19.4632 8.09105 20.0746 9.00624 20.4936C9.90874 20.9001 11.0378 21.1063 12.3621 21.1063C13.708 21.1063 14.8509 20.8668 15.7547 20.3967C16.6719 19.9301 17.4229 19.284 17.9868 18.4765C18.5378 17.6873 18.931 16.7591 19.1553 15.7175C19.3733 14.7052 19.4838 13.6124 19.4838 12.4694C19.4838 11.2368 19.3758 10.0877 19.1628 9.05382C18.9447 7.99542 18.5645 7.07388 18.0327 6.3147V6.3147Z" fill="black"/>
<path d="M24.7341 21.1344C24.4206 20.304 23.9393 20.1298 23.5907 20.1298H22.7978C23.3111 19.3532 23.7324 18.485 24.0551 17.5382C24.5862 15.9795 24.8554 14.1938 24.8554 12.2307C24.8554 10.1936 24.5953 8.38591 24.0821 6.85724C23.563 5.31749 22.7775 4.02222 21.7501 3.00982C20.7251 1.98643 19.4255 1.21768 17.8865 0.724757C16.3786 0.243799 14.6246 0 12.6731 0C10.62 0 8.78383 0.296192 7.21667 0.879933C5.64161 1.46275 4.29879 2.31929 3.22675 3.42452C2.15513 4.52218 1.33891 5.86969 0.800935 7.4296C0.269465 8.97053 0 10.7238 0 12.6408C0 14.7167 0.25296 16.5497 0.751792 18.0887C1.25597 19.6442 2.02992 20.9507 3.05229 21.9719C4.07709 22.9951 5.37633 23.7657 6.91313 24.2622C8.42164 24.7518 10.2011 25 12.2022 25C12.2477 25 12.293 24.9999 12.3381 24.9996C12.3459 24.9999 12.3536 25 12.3614 25H23.5908C23.8868 25 24.4313 24.8897 24.753 24.1514C24.9572 23.6828 25 23.1274 25 22.7441C24.9999 22.1684 24.903 21.5817 24.7341 21.1344V21.1344ZM23.8152 23.6722C23.7273 23.935 23.6243 24.0235 23.5907 24.0235H12.3884C12.378 24.023 12.3676 24.0227 12.3569 24.0229C12.3055 24.0232 12.2539 24.0235 12.2021 24.0235C10.3208 24.0235 8.65936 23.7938 7.26322 23.3408C5.8713 22.8911 4.74795 22.2265 3.8291 21.3091C2.91724 20.3982 2.22284 19.2206 1.76527 17.8089C1.29585 16.3607 1.05786 14.6219 1.05786 12.6408C1.05786 10.8245 1.31056 9.17092 1.80897 7.72594C2.30103 6.29933 3.0424 5.07208 4.01377 4.07716C4.97753 3.0836 6.18758 2.3129 7.61145 1.78599C9.0533 1.24888 10.7563 0.976564 12.6731 0.976564C14.5067 0.976564 16.1445 1.2024 17.5404 1.64751C18.9126 2.08706 20.0675 2.76846 20.9756 3.67506C21.8953 4.58136 22.6006 5.74957 23.0717 7.14684C23.5533 8.58122 23.7975 10.2917 23.7975 12.2307C23.7975 14.0943 23.5446 15.7814 23.0458 17.2452C22.6463 18.4179 22.0854 19.4542 21.3789 20.3255C21.2589 20.4735 21.2397 20.6713 21.3293 20.8367C21.419 21.002 21.6021 21.1064 21.8023 21.1064H23.5413C23.6291 21.1885 23.8022 21.4964 23.8922 22.0848C23.98 22.6594 23.9505 23.2677 23.8152 23.6722V23.6722Z" fill="black"/>
<path d="M5.90024 12.8904C6.19239 12.8904 6.42922 12.6718 6.42922 12.4021C6.42922 12.1324 6.19239 11.9138 5.90024 11.9138H5.89987C5.60771 11.9138 5.37109 12.1324 5.37109 12.4021C5.37109 12.6718 5.60808 12.8904 5.90024 12.8904Z" fill="black"/>
</svg>
